<?xml version="1.0" encoding="UTF-8"?>
<svg id="Layer_1" xmlns="http://www.w3.org/2000/svg" version="1.1" viewBox="0 0 642.43 88.29">
  <!-- Generator: Adobe Illustrator 29.3.0, SVG Export Plug-In . SVG Version: 2.1.0 Build 146)  -->
  <defs>
    <style>
      .st0 {
        fill: #dde6df;
        fill-rule: evenodd;
      }

      .st1 {
        fill: #205e38;
      }

      .st2 {
        fill: #006227;
      }
    </style>
  </defs>
  <polygon class="st0" points="1.47 1.44 640.95 1.44 640.95 86.85 1.47 86.85 1.47 1.44 1.47 1.44"/>
  <path class="st2" d="M1.16,0h640.1c.64,0,1.16.64,1.16,1.42v85.44c0,.79-.52,1.42-1.16,1.42H1.16c-.64,0-1.16-.64-1.16-1.42V1.42C0,.64.52,0,1.16,0h0ZM639.53,2.87H2.86v82.55h636.67V2.87h0Z"/>
  <path class="st1" d="M16.17,58.67l.07-2.74c.55-.13,1.2-.26,1.98-.37,1.48-.2,2.68-.5,3.61-.89.33-.52.52-1.02.62-1.5.19-1.27.27-3.15.27-5.63l-.06-14.51c0-1.5-.08-5.43-.24-11.78-.05-1.71-.16-2.76-.34-3.18-.07-.13-.19-.24-.35-.34-.36-.24-1.04-.4-2.04-.44-.43-.02-1.55-.15-3.34-.37l-.1-2.42,7.64-.17,11.16-.37,1.33-.04c.28-.02.55-.03.83-.03.22,0,.83.01,1.81.03h2.18c1.74-.02,3.61.24,5.64.78.7.19,1.63.57,2.8,1.15,1.17.57,2.17,1.32,3.02,2.21.85.9,1.49,1.91,1.9,3.02.41,1.12.62,2.31.62,3.55,0,1.39-.32,2.63-.93,3.74-.61,1.1-1.54,2.12-2.8,3.05-.63.45-2.1,1.2-4.4,2.25,3.44.78,6.06,2.19,7.85,4.25,1.79,2.06,2.7,4.36,2.7,6.87,0,1.5-.29,3.08-.86,4.72-.41,1.22-1.1,2.36-2.07,3.41-1.31,1.39-2.67,2.43-4.11,3.13-1.44.71-3.45,1.29-6,1.75-1.27.22-3.2.34-5.8.34l-5.8-.14c-2.46,0-5.38.12-8.77.34-.96.05-3.61.15-7.98.31h0ZM32.07,32.76c.91.14,1.98.21,3.22.21,3.4,0,5.99-.63,7.75-1.9,1.75-1.26,2.62-3.44,2.62-6.54,0-2.18-.83-4.01-2.49-5.46-1.65-1.46-4.16-2.18-7.5-2.18-.96,0-2.24.13-3.82.37,0,.52.02,1.28.06,2.25.12,1.95.17,4.65.17,8.13l-.03,2.87c0,.5.01,1.25.03,2.25h0ZM32.48,54.5c1.48.62,2.85.93,4.14.93,2.59,0,4.71-.4,6.35-1.19,1.63-.78,2.83-1.87,3.58-3.29.76-1.41,1.13-3.18,1.13-5.29s-.41-3.94-1.22-5.27c-1.14-1.82-2.52-3.04-4.14-3.66-1.62-.63-4.04-.94-7.27-.94-1.43,0-2.42.11-2.97.3v4.21l-.03,5.04.1,7.85c.02.36.14.79.34,1.29h0ZM60.5,30.88c.79-.14,1.46-.2,1.98-.2.27,0,.58,0,.92.02,2.07.14,3.75.21,5.06.21h1.77l4.85-.27c.19.13.34.28.48.44-.07,1-.13,1.63-.17,1.91-.34.07-.59.1-.78.13-.52.07-.91.14-1.17.2-.24.05-.52.11-.82.15-.34.09-.54.24-.58.48.14.55.28,1,.41,1.36l1.64,3.34c1.29,3.18,2.63,6.12,3.99,8.81l1.91,3.93c.14-.28,1.01-2.52,2.63-6.72,1.93-4.99,2.97-7.79,3.13-8.44.09-.34.14-.64.14-.89,0-.23-.07-.61-.21-1.13-.5-.36-.91-.59-1.22-.7-.33-.11-1.06-.22-2.23-.36l-1.08-.27-.1-.48c-.02-.23-.03-.4-.03-.51,0-.19.03-.48.1-.89.68-.05,1.17-.07,1.47-.07l2.76.17,1.84.06c.77,0,2.12-.1,4.03-.34,1.18-.14,2.07-.21,2.66-.23.05.56.07,1,.07,1.29,0,.14-.01.34-.04.62-.41.2-.86.36-1.36.48-.82.2-1.54.4-2.16.58-.34.27-.56.49-.68.68-.38.86-1.18,2.75-2.35,5.66l-2.46,6.59-5.7,13.58-3.93,9.01c-.87,1.74-1.89,3.23-3.04,4.47-.43.48-.93.84-1.5,1.1-.93.36-1.99.55-3.17.55-.12,0-.75-.08-1.89-.24-.93-.22-1.74-.71-2.42-1.47-.48-.55-.71-1.12-.71-1.74,0-1.26.54-2.41,1.61-3.48.96-.59,1.65-.89,2.11-.89,1.03,0,2.23.54,3.59,1.61.63.51,1.14.78,1.54.78s.69-.22.92-.65c1.98-3.84,3.25-6.57,3.82-8.19l-6.31-13.89c-2.37-5.58-4.18-9.48-5.43-11.71-.64-1.14-1.08-1.81-1.35-2.01-.26-.21-.67-.38-1.21-.55-.29-.07-.63-.2-1.03-.41-.11-.52-.21-1.02-.3-1.5h0ZM102.45,62.97c-3.08-.77-5.13-1.68-6.15-2.71-1.02-1.04-1.53-2.19-1.53-3.46,0-1.03.27-1.82.82-2.35.55-.55,3.04-2.09,7.47-4.61-2.25-1.34-3.8-2.63-4.64-3.89-1.1-1.64-1.64-3.25-1.64-4.85,0-1.43.3-2.96.9-4.58,1.27-2.32,3.02-4.05,5.23-5.2,2.22-1.15,5.08-1.72,8.59-1.72,1.41,0,2.63.09,3.66.27.48.09,1.27.34,2.39.76l1.29.48c1.17.72,2.17,1.48,3.04,2.25,1.96-.38,3.53-.78,4.74-1.2.84-.24,1.57-.37,2.18-.37.45,0,.83.2,1.1.58.28.38.41,1.29.41,2.73,0,1.26-.16,2.13-.51,2.62-.34.49-.69.73-1.05.73-.14,0-.54-.16-1.2-.48-1.55-.71-2.78-1.08-3.72-1.13.55,1.57.82,3.06.82,4.47,0,1.65-.49,3.24-1.46,4.75-.97,1.51-2.28,2.71-3.97,3.6-2.34,1.26-4.68,1.89-7.03,1.89-1.5,0-2.53-.04-3.08-.11-.79-.09-1.91-.3-3.34-.62-1.93,1.07-3.29,1.98-4.07,2.73-.38.37-.58.8-.58,1.31,0,.45.21.86.61,1.22.4.36,1.06.62,1.99.76.19.02.43.07.76.13,1.2.09,2.81.14,4.81.14.24,0,1.05-.04,2.42-.1.38-.02.71-.04.99-.04,5.43,0,9.25.87,11.43,2.6,2.17,1.72,3.24,3.84,3.24,6.35,0,1.34-.37,2.66-1.14,3.94-.76,1.29-1.79,2.34-3.09,3.15-1.29.8-3.17,1.53-5.62,2.17-2.45.64-5.07.96-7.86.96-3.03,0-5.74-.29-8.14-.89-2.4-.59-4.29-1.56-5.65-2.9-1.05-1-1.57-2.07-1.57-3.22s.44-2.11,1.32-2.98c.87-.87,3.16-1.93,6.85-3.16h0ZM110.98,49.24c1.53,0,2.83-.65,3.92-1.96,1.07-1.32,1.62-3.34,1.62-6.09,0-3.65-.49-6.09-1.46-7.34-.97-1.25-2.33-1.88-4.08-1.88-.22,0-.83.06-1.8.16-1.1.21-2.09.98-2.99,2.33-.9,1.34-1.34,3.13-1.34,5.39,0,.6.08,1.83.23,3.65.07.77.24,1.44.51,2.02.38.89.82,1.57,1.27,2.06.45.49,1.06.89,1.82,1.2.77.3,1.54.45,2.31.45h0ZM112.93,73.79c3.37-.39,5.99-1.31,7.85-2.74,1.18-.93,1.77-1.85,1.77-2.76,0-.5-.12-.99-.37-1.47-.24-.48-.7-.94-1.35-1.42-.64-.47-1.37-.78-2.2-.97-1.15-.23-2.69-.34-4.6-.34l-4.19-.07c-3.69,0-6.16.45-7.43,1.36-1.26.91-1.89,2.12-1.89,3.62,0,.79.35,1.59,1.06,2.37.7.79,1.89,1.41,3.54,1.86,1.67.45,3.45.68,5.36.68.55,0,1.36-.03,2.46-.13h0ZM139.11,62.97c-3.08-.77-5.13-1.68-6.15-2.71-1.03-1.04-1.53-2.19-1.53-3.46,0-1.03.27-1.82.81-2.35.55-.55,3.04-2.09,7.47-4.61-2.25-1.34-3.8-2.63-4.64-3.89-1.09-1.64-1.64-3.25-1.64-4.85,0-1.43.3-2.96.9-4.58,1.27-2.32,3.02-4.05,5.23-5.2,2.22-1.15,5.08-1.72,8.59-1.72,1.41,0,2.63.09,3.66.27.48.09,1.27.34,2.39.76l1.29.48c1.17.72,2.17,1.48,3.04,2.25,1.96-.38,3.53-.78,4.74-1.2.84-.24,1.57-.37,2.18-.37.45,0,.83.2,1.1.58.28.38.41,1.29.41,2.73,0,1.26-.16,2.13-.51,2.62-.34.49-.69.73-1.05.73-.14,0-.54-.16-1.2-.48-1.55-.71-2.78-1.08-3.72-1.13.55,1.57.82,3.06.82,4.47,0,1.65-.49,3.24-1.46,4.75-.97,1.51-2.28,2.71-3.97,3.6-2.34,1.26-4.68,1.89-7.03,1.89-1.5,0-2.53-.04-3.08-.11-.79-.09-1.91-.3-3.34-.62-1.93,1.07-3.29,1.98-4.07,2.73-.38.37-.58.8-.58,1.31,0,.45.21.86.61,1.22.4.36,1.06.62,1.99.76.19.02.43.07.76.13,1.2.09,2.81.14,4.81.14.24,0,1.05-.04,2.42-.1.38-.02.71-.04.99-.04,5.43,0,9.25.87,11.43,2.6,2.17,1.72,3.24,3.84,3.24,6.35,0,1.34-.37,2.66-1.14,3.94-.76,1.29-1.79,2.34-3.09,3.15-1.29.8-3.17,1.53-5.62,2.17-2.45.64-5.07.96-7.86.96-3.03,0-5.74-.29-8.14-.89-2.4-.59-4.29-1.56-5.65-2.9-1.05-1-1.57-2.07-1.57-3.22s.44-2.11,1.32-2.98c.87-.87,3.16-1.93,6.85-3.16h0ZM147.64,49.24c1.53,0,2.83-.65,3.91-1.96,1.07-1.32,1.62-3.34,1.62-6.09,0-3.65-.49-6.09-1.46-7.34-.97-1.25-2.33-1.88-4.08-1.88-.22,0-.83.06-1.81.16-1.1.21-2.09.98-2.99,2.33-.9,1.34-1.34,3.13-1.34,5.39,0,.6.08,1.83.23,3.65.07.77.25,1.44.51,2.02.39.89.82,1.57,1.27,2.06.45.49,1.06.89,1.82,1.2.77.3,1.54.45,2.31.45h0ZM149.58,73.79c3.37-.39,5.99-1.31,7.85-2.74,1.18-.93,1.77-1.85,1.77-2.76,0-.5-.12-.99-.37-1.47-.24-.48-.7-.94-1.35-1.42-.64-.47-1.37-.78-2.2-.97-1.15-.23-2.69-.34-4.6-.34l-4.19-.07c-3.69,0-6.16.45-7.43,1.36-1.26.91-1.89,2.12-1.89,3.62,0,.79.35,1.59,1.06,2.37.7.79,1.89,1.41,3.54,1.86,1.67.45,3.45.68,5.36.68.55,0,1.36-.03,2.46-.13h0ZM170.03,40.31c.59-1.93,1.12-3.23,1.57-3.86,1.27-1.87,2.63-3.33,4.08-4.37,1.44-1.05,2.75-1.75,3.9-2.09,1.5-.43,2.73-.65,3.66-.65,2.13,0,3.87.16,5.18.5,1.32.33,2.42.8,3.31,1.41,1.28.89,2.31,1.79,3.08,2.7.77.91,1.41,1.98,1.9,3.2.49,1.24.75,2.73.79,4.47l-3.79-.07c-1.05,0-3.34-.1-6.9-.3-1.32-.09-2.23-.14-2.73-.14-.16,0-1.39.01-3.68.04h-2.94c-.05.31-.07.59-.07.82,0,1.21.14,2.48.44,3.81.29,1.33.73,2.5,1.33,3.52.59,1.01,1.33,1.88,2.2,2.61.87.72,1.78,1.25,2.71,1.57l1.98.64c1.75,0,2.92-.06,3.52-.16,1.08-.23,2.05-.52,2.88-.87.84-.35,1.84-.96,3.03-1.79.82.59,1.49,1.13,2.04,1.61-2,2.2-4.08,3.8-6.22,4.79-2.15.99-4.56,1.49-7.22,1.49-1.79,0-3.26-.16-4.4-.48-1.53-.41-2.9-1.04-4.12-1.88-1.24-.85-2.3-1.89-3.18-3.15-.89-1.25-1.55-2.54-1.98-3.86-.57-1.72-.85-3.12-.85-4.16,0-1.98.16-3.77.48-5.36h0ZM189.86,38.84c-.02-1.28-.27-2.49-.75-3.66-.48-1.15-1.22-2.06-2.22-2.71-1-.64-2.02-.97-3.04-.97-1.52,0-2.9.66-4.12,2.02-1.22,1.34-1.92,3.16-2.09,5.45l7.78.03c.5,0,1.21-.03,2.12-.09.66-.07,1.13-.1,1.4-.1.21,0,.51.01.92.03h0ZM199.9,17.3l2.9-1.1c.73-.27,2.63-1.21,5.7-2.83h1.5c.38,0,.73.02,1.03.07.02.66.03,1.12.03,1.36l-.03,1.4.17,12.84-.04,4.92c.65-.73,1.54-1.49,2.62-2.29.23-.15.86-.48,1.89-.97,1.01-.49,1.84-.8,2.46-.94,1.08-.25,2.05-.37,2.9-.37,2.25,0,4.09.29,5.51.85,1.42.57,2.76,1.47,4.02,2.68,1.27,1.22,2.33,2.92,3.19,5.1.55,1.4.83,3.09.83,5.09,0,1.29-.22,2.76-.68,4.38-.44,1.63-1.17,3.22-2.17,4.77-.72,1.12-1.75,2.21-3.09,3.27-1.33,1.07-2.86,1.92-4.59,2.56-1.13.43-3.08.65-5.84.65-2.53,0-5.36-.93-8.49-2.81-.83-.49-1.41-.84-1.78-1.01-.45.65-.96,1.46-1.51,2.39-.56.93-.93,1.54-1.14,1.84l-1.71.04c0-.55.03-1.11.09-1.68.06-.57.08-1.1.08-1.6l-.04-2.53.11-.89c.05-.37.07-1,.07-1.91v-24.96c0-2.5-.08-4.14-.24-4.88-.05-.23-.13-.4-.26-.5-.12-.09-1.28-.56-3.5-1.38v-1.57h0ZM211.27,35.97l-.03,5.32c0,5.89.14,9.41.42,10.58.29,1.15,1.05,2.17,2.27,3.02,1.24.85,2.53,1.28,3.89,1.28,1,0,2-.21,3.01-.62,1-.41,1.76-.86,2.28-1.36.8-.75,1.39-1.55,1.78-2.39.61-1.32,1-2.53,1.15-3.62.21-1.49.31-2.69.31-3.58,0-1.86-.38-3.72-1.15-5.55-.76-1.83-1.83-3.2-3.2-4.1-1.37-.9-2.88-1.35-4.49-1.35-1,0-2.19.29-3.55.86-1.36.57-2.26,1.07-2.69,1.5h0ZM242.94,17.67c0-1.22.4-2.24,1.19-3.02.8-.78,1.83-1.18,3.08-1.18,1.34,0,2.46.42,3.34,1.25.89.83,1.33,1.77,1.33,2.82,0,.77-.17,1.54-.52,2.32-.35.77-.91,1.39-1.67,1.85-.77.48-1.55.71-2.34.71-1.1,0-2.1-.48-3.02-1.41-.93-.93-1.39-2.04-1.39-3.34h0ZM238.16,58.39l-.07-2.21,3.86-.51c.57-.16.95-.4,1.18-.7.22-.3.33-.99.33-2.06v-.37c0-.28.01-.77.05-1.49.03-.71.06-1.35.06-1.9,0-.43-.04-1.26-.11-2.48l.03-1.71-.03-1.61.07-5.56c0-.71-.07-1.43-.21-2.19-.24-.34-.7-.63-1.36-.89-.66-.24-1.81-.43-3.45-.55v-1.91c2.34-.13,4.4-.62,6.17-1.47,1.21-.55,2.52-1.52,3.93-2.9h2.29c.08,2.82.13,6.49.13,11l-.23,13.92c0,.96.05,1.82.13,2.6.71.24,1.86.5,3.45.74.62.09,1.11.21,1.47.34l-.04,1.88c-.6.02-1.06.04-1.36.04-.34,0-.86-.02-1.57-.06-2.32-.12-5.42-.17-9.31-.17-1.12,0-2.2.03-3.25.12-1.05.08-1.76.12-2.14.12h0ZM259.81,48.84c.68-.14,1.18-.2,1.5-.2.15,0,.4.01.71.02l.3.35c1.23,2.16,2.04,3.47,2.42,3.93.8.93,1.58,1.68,2.36,2.25.52.36,1.34.75,2.46,1.13.75.27,1.54.41,2.39.41,1.43,0,2.66-.47,3.68-1.39,1.03-.92,1.54-1.91,1.54-2.98,0-.73-.2-1.35-.58-1.86-.38-.51-1.17-1.01-2.32-1.51-.57-.26-2-.66-4.29-1.24-2.28-.56-3.67-.94-4.15-1.12-1.07-.41-2.02-.98-2.84-1.71-.84-.72-1.47-1.55-1.9-2.46-.59-1.29-.89-2.41-.89-3.34,0-1.72.24-3.15.75-4.25.5-1.1,1.21-2.07,2.12-2.91.66-.64,1.65-1.22,2.98-1.75,1.34-.51,2.76-.78,4.29-.78,2.16,0,4.07.15,5.7.44,1.64.3,3.03.75,4.17,1.33.13.52.33,1.74.57,3.62.26,1.89.38,3.01.38,3.34,0,.16-.03.33-.1.51-.59.19-1.08.27-1.47.27-.23,0-.56-.01-.99-.06-.21-.33-.48-.8-.82-1.43-1.1-2.03-2.21-3.46-3.37-4.29-1.15-.83-2.47-1.25-3.97-1.25s-2.89.45-3.96,1.36c-.78.66-1.17,1.56-1.17,2.7,0,.75.41,1.5,1.23,2.28.79.79,2.18,1.4,4.16,1.81,2.98.66,5.18,1.32,6.59,1.98,2.04.96,3.48,2.09,4.31,3.38.83,1.29,1.25,2.8,1.25,4.51,0,2.63-.99,4.83-2.98,6.61-1.99,1.76-4.9,2.65-8.73,2.65-.5,0-1.81-.12-3.93-.34-.96-.12-2.07-.35-3.38-.69-.31-.09-1.14-.42-2.49-.99-.24-.14-.42-.3-.52-.5-.11-.19-.26-1.14-.47-2.84-.36-2.77-.55-4.44-.57-4.99h0ZM287.86,32.52c2.68-1.14,4.63-2.26,5.81-3.34,1.2-1.1,2.48-2.87,3.84-5.32h1.91c.21.58.3,1.21.3,1.87,0,1.18-.01,2.1-.03,2.76l-.09,2.02c0,.12.01.37.04.78l.78.04c.12,0,1.19-.05,3.2-.14.16,0,1.01-.02,2.56-.06.14.61.21,1.15.21,1.63,0,.52-.08,1.14-.24,1.84-.75.09-1.32.14-1.7.14-.19,0-.55-.02-1.09-.07h-1.77l-.62-.04-1.64.07-.07,13.04c-.02,2.53.04,4.1.16,4.73.12.63.38,1.22.79,1.79.52.24,1.11.37,1.75.37s1.07-.06,1.36-.16c.29-.12.79-.45,1.5-.99.14-.12.35-.28.65-.48.54.43.99.86,1.33,1.29l.14.41c-.8,1.25-1.92,2.24-3.37,2.95-1.44.72-2.98,1.08-4.62,1.08-2.12,0-3.83-.68-5.15-2.02-1.33-1.34-1.98-3.43-1.98-6.25l.13-6.01v-9.73l-1.05-.03-2.46.03-.44-.1c-.14-.2-.21-.4-.21-.57,0-.14.02-.65.07-1.54h0ZM339.27,51.98l.78.51c.21.15.34.35.38.57l.04.18c-.55,2.03-1.27,3.41-2.16,4.18-.88.76-1.99,1.14-3.31,1.14s-2.5-.37-3.47-1.11c-.97-.75-1.84-2.04-2.64-3.91-.98,1.74-2.35,3.04-4.12,3.91-1.77.87-3.95,1.32-6.52,1.32-2.37,0-4.1-.5-5.22-1.49-1.12-.99-1.68-2.29-1.68-3.9,0-.76.17-1.51.5-2.3.33-.77.86-1.54,1.61-2.29.73-.77,1.92-1.61,3.56-2.52.24-.13,1.12-.52,2.59-1.15l8.5-3.41c.07-.86.1-1.75.1-2.63,0-3.06-.37-5.16-1.13-6.28-.45-.68-1.25-1.03-2.39-1.03s-2.19.22-3.15.65c-.96.43-1.64.99-2.07,1.67-.33.5-.59,1.46-.83,2.84-.15,1-.3,1.57-.44,1.74-.34.43-.96.83-1.85,1.18-.9.35-1.51.61-1.83.77-1.24.59-2.21.89-2.94.89-.31-.27-.48-.65-.48-1.15,0-1.3.27-2.41.82-3.36.83-1.32,2.06-2.6,3.7-3.83,1.65-1.25,3.19-2.11,4.63-2.61,1.96-.64,4.35-.96,7.16-.96,1.83,0,3.39.34,4.7,1,1.32.68,2.23,1.67,2.74,3,.51,1.32.76,3.69.76,7.13l-.09,5.63.07,4.14v1.06c0,.95.13,1.61.38,1.96.27.35.61.52,1.01.52.24,0,.47-.06.64-.2l1.02-1.61.62-.23h0ZM328.07,44.06c-1.29.43-2.76,1.15-4.38,2.17-1.63,1.01-2.76,2.03-3.4,3.05-.45.76-.69,1.68-.69,2.76,0,.98.3,1.79.9,2.42.58.64,1.27.97,2.04.97,1.28,0,2.36-.37,3.25-1.1,1.2-.98,1.91-1.76,2.11-2.34.21-.58.31-2.22.31-4.93,0-1-.05-2-.14-3.01h0ZM342.57,56.65c.59-.27,1.14-.45,1.64-.55,1.25-.2,1.98-.37,2.18-.51.35-.2.57-.46.69-.75.14-.45.2-1.46.2-3.01v-2.97l.04-2.42-.09-3.59v-2.14c0-1.43-.12-2.61-.35-3.52-.09-.34-.37-.69-.85-1.02-.64-.45-1.71-.9-3.24-1.33l-.04-1.64c.29-.09.56-.15.8-.19.23-.04,1.15-.26,2.74-.66,1.26-.45,2.06-.77,2.42-.96.12-.07.3-.18.55-.3.28-.23.58-.45.92-.69.69-.48,1.5-1.3,2.46-2.49l1.82-.14-.07,3.87c-.02.38-.03.69-.03.92,0,.17.01.7.03,1.56,1.89-1.63,3.6-2.77,5.15-3.41,2.03-.84,3.95-1.26,5.77-1.26,2.14,0,4.02.52,5.64,1.58,1.61,1.06,2.67,2.28,3.17,3.67.5,1.39.76,4.19.76,8.4l-.14,11.13c0,.52.09.96.27,1.29.23.19.86.36,1.88.51l1.68.31c.21.29.3.65.3,1.08,0,.28-.01.65-.04,1.13l-6.69-.48-1.98.07h-1.56l-4.51.34h-1.17c-.02-.29-.04-.52-.04-.68,0-.42.02-.86.07-1.34.31-.07,1.12-.18,2.39-.34.35-.05.72-.13,1.13-.23.46-.19.71-.37.78-.55.19-.4.28-1.13.28-2.23,0-1.91-.02-3.38-.07-4.4l.04-3.96c.02-4.8-.28-7.78-.89-8.97-.87-1.71-2.17-2.56-3.89-2.56-1.28,0-2.6.33-3.96.98-1.36.64-2.77,1.63-4.23,2.95l-.07.58.07,2.16-.04,2.28.13,5.46-.07.85c0,3.7.15,5.8.45,6.28.29.48,1.42,1,3.38,1.57.06.38.09.66.09.85,0,.27-.07.69-.23,1.26-.71.02-1.29.04-1.77.04s-1.24-.07-2.26-.2l-3.65-.07c-1.83,0-4.45.08-7.89.23-.09-.22-.14-.47-.14-.71,0-.19.01-.55.04-1.1h0Z"/>
  <path class="st1" d="M388.78,32.21c1.12-.77,2.19-1.33,3.23-1.67,1.04-.35,2.5-.61,4.39-.79h1.91c2.48,0,4.86.86,7.13,2.56l.07-.82-.04-2.28.14-3.66c0-3.85-.3-6.28-.89-7.31-.35-.62-.94-.94-1.79-.99-.85-.05-1.55-.19-2.06-.44v-1.64c.43-.13.99-.21,1.67-.22.69-.01,2.02-.24,4-.7l1.15-.23,3.39-.79c.68-.15,1.1-.23,1.26-.23.12,0,.29.02.55.07.14.48.2.83.2,1.06l-.04.51v.61c0,.64.04,2.33.1,5.09v1.84l.04.99-.04,1.7.11,3.55-.07,2.09c-.05.91-.07,2.34-.07,4.3,0,.31.01.61.04.85v1.27c-.02.36-.04.63-.04.82,0,.34.04.83.11,1.47v1.88l-.04.72c-.05.65-.07,1.56-.07,2.73s.02,2.25.07,3.2c.02.4.04.75.04,1.06v2.56c0,.82.02,1.79.07,2.94.41.24,1.41.43,3.01.55.5.02.94.08,1.33.16.12.35.17.59.17.76,0,.2-.08.51-.24.92-.93.22-1.91.4-2.94.51-3.11.38-5.34.93-6.65,1.64-.64.36-1.08.54-1.33.54s-.54-.02-.86-.06c.02-.42.04-.68.04-.79,0-1.55-.04-2.54-.09-2.97-.35.19-.77.42-1.27.72-1.53.91-2.91,1.54-4.16,1.89-1.26.36-2.69.54-4.3.54-2.87,0-5.16-.55-6.86-1.64-2.53-1.6-4.27-3.51-5.24-5.73-.97-2.22-1.45-4.67-1.45-7.34,0-4.59,2.11-8.52,6.34-11.78h0ZM399.3,54.81c.48.05.89.07,1.22.07.76,0,1.56-.16,2.41-.48.85-.33,1.76-.79,2.72-1.4.02-.76.04-1.22.04-1.41,0-7.21-.1-11.56-.31-13.04-.27-1.98-1.02-3.51-2.25-4.57-1.24-1.07-2.72-1.61-4.47-1.61-1,0-1.95.19-2.85.55-.9.36-1.63.89-2.19,1.57-.85,1-1.48,2.13-1.92,3.41-.58,1.77-.89,3.44-.89,4.97,0,3.72.79,6.55,2.35,8.52,1.57,1.97,3.62,3.1,6.15,3.4h0ZM439.5,12.28h2.12c.16.26.28.44.34.55.64,1.09,1.13,1.82,1.47,2.16.3.09,1.86.14,4.68.14,1.75,0,3.31-.01,4.67-.03l.69-.11,4.12-.04,7.71.07h10.56l2-.31c.3-.2.62-.75.95-1.63.09-.21.22-.49.38-.85l1.5-.04c.22,0,.56.01,1.03.04.01,1.56.02,3.93.02,7.1l.04,3.04-.04,1.74c0,.59-.03,1.11-.13,1.54-.93.29-1.76.48-2.46.55-.59-.89-1.24-2.18-1.93-3.86-.69-1.69-1.13-2.62-1.32-2.81-.27-.29-.58-.48-.96-.57-.54-.12-2.95-.18-7.23-.18-.63,0-1.43.05-2.39.14-.13.89-.2,1.61-.2,2.18l.04,4.58v10.03l.13,10.82-.03,4.44c0,1.57.14,2.75.42,3.54.36.16,1.02.31,2,.45.19.01,1.03.2,2.53.54.69.16,1.29.35,1.81.55.12.83.17,1.33.17,1.5,0,.21-.04.5-.11.89-.5.02-.91.03-1.22.03-2.34,0-4.33-.08-5.98-.26-1.63-.16-4.6-.26-8.9-.26-.69,0-2.69.14-6.01.41-1.29.09-2.14.14-2.53.14-.02-.34-.05-.61-.07-.78l-.04-.79v-.27c.5-.66,1.45-1.15,2.83-1.47,2.38-.57,4.01-1.08,4.92-1.54.23-.43.37-1,.42-1.7.15-2.74.23-7.08.23-13.04l-.17-12.91c0-3.55-.06-5.7-.2-6.45-.05-.2-.13-.35-.24-.45-.1-.1-.27-.16-.48-.19-.7-.09-3.01-.14-6.9-.14-2.13,0-3.57.21-4.3.62-.98.57-2.45,2.11-4.4,4.64-.56.73-.99,1.1-1.26,1.1-1.05-.55-1.71-.99-2.02-1.33.71-1.48,1.69-4.44,2.94-8.88.36-1.29.63-2.18.78-2.63h0ZM481.31,56.72c.3-.26.69-.43,1.16-.55,1.15-.24,2.26-.71,3.31-1.36.21-.55.3-2.39.3-5.53,0-5.76-.12-9.65-.37-11.67-.05-.36-.22-.68-.55-.96-.57-.29-1.34-.56-2.32-.78-.45-.12-.72-.36-.82-.76l-.1-1.26c1.69-.23,3.2-.8,4.58-1.72,1.36-.92,2.39-1.86,3.06-2.82.37-.52.69-.92.96-1.19l2.39-.1c.12.52.17.95.17,1.29,0,.26-.01.56-.03.92-.02.8-.04,1.46-.04,1.98,0,.26.01,1.2.04,2.84.93-1.6,1.62-2.67,2.05-3.22.2-.24.8-.8,1.81-1.67.78-.57,1.65-.86,2.63-.86,1.2,0,2.25.41,3.13,1.24.89.82,1.34,1.76,1.34,2.83s-.34,2.03-1.01,2.89c-.68.85-1.56,1.27-2.68,1.27-.98,0-2-.41-3.08-1.22-.63-.5-1.14-.76-1.53-.76l-.24.04c-.48.16-.91.59-1.29,1.31-.64,1.13-.96,2.32-.96,3.54l.07.92c.08,1.69.15,5.64.2,11.85.07.57.29,1.14.65,1.71.41.31.83.54,1.25.68.42.14,1.15.26,2.2.34,1.05.09,1.68.24,1.91.43.22.2.34.51.34.94,0,.24-.07.57-.2.99h-3.22l-6.51-.35c-1.64,0-3.13.07-4.47.21h-.58c-.16,0-1.34.06-3.55.17-.07-.37-.1-.64-.1-.83,0-.17.03-.44.1-.78h0ZM534.26,33.52c1.46,1.41,2.54,3.03,3.26,4.86.71,1.83,1.07,3.55,1.07,5.17,0,3.05-.47,5.51-1.4,7.38-1.41,2.82-3.31,4.9-5.7,6.24-2.39,1.34-5.17,2.02-8.33,2.02-3.55,0-6.56-.8-9.03-2.39-2.47-1.6-4.23-3.4-5.29-5.43-1.06-2.03-1.58-4.54-1.58-7.55,0-1.51.24-3.05.75-4.59.5-1.53,1.19-2.87,2.06-4.01.89-1.14,1.84-2.1,2.89-2.87,1.53-1.1,3.05-1.88,4.59-2.34,1.54-.47,3.4-.7,5.58-.7,4.75,0,8.47,1.4,11.13,4.21h0ZM515.6,45.32c.2,2.83.35,4.45.44,4.88.29,1.53.76,2.83,1.4,3.93.43.71,1.14,1.33,2.14,1.88,1,.55,2.2.83,3.59.83,1.67,0,3.06-.54,4.2-1.6,1.14-1.05,1.96-2.7,2.46-4.96.33-1.48.48-3.9.48-7.27,0-4.14-.68-7.07-2.05-8.79-1.36-1.72-3.16-2.57-5.38-2.57-1.76,0-3.2.49-4.36,1.47-1.15.98-1.95,2.42-2.4,4.33-.3,1.22-.48,3.86-.51,7.88h0ZM542.73,56.14c.17-.09.43-.15.75-.17,1.34-.08,2.41-.33,3.22-.71.15-.07.26-.22.28-.44.04-.23.1-2.3.2-6.21v-1.98l.02-3.52-.02-3.66v-.81c0-1.07-.24-1.86-.73-2.37-.49-.51-1.77-1.07-3.84-1.67v-1.4c.43-.1.94-.23,1.54-.37,2.1-.43,3.82-1.05,5.18-1.84,1.05-.62,2.09-1.54,3.11-2.76h1.88v.54l.11,2.74-.04,1.26.07.62c2.15-1.71,3.96-2.83,5.41-3.38,1.45-.55,3.1-.82,4.96-.82s3.53.38,5.21,1.15c1.68.78,3.06,2.07,4.18,3.89,1.62-1.57,2.97-2.67,4.07-3.31.75-.43,1.77-.82,3.09-1.14,1.3-.33,2.54-.5,3.7-.5,3.16,0,5.66.96,7.5,2.87,1.84,1.95,2.76,4.56,2.76,7.85v5.43c0,1.12-.03,3.04-.09,5.77v2.63c0,.45.13.9.41,1.33.89.39,1.64.64,2.28.76.45.06.89.22,1.29.48.05.41.11.75.17,1.01l-.03.69c-.64.12-1.09.17-1.36.17-.19,0-.73-.06-1.65-.15-.92-.11-2.09-.16-3.51-.16-3.43,0-6.16.12-8.19.35-.15-.57-.23-1.03-.23-1.38l.04-.48c.29-.15,1.27-.55,2.94-1.19.29-.3.47-.56.51-.79.1-.56.16-1.78.16-3.65l-.16-9.62c-.02-1.62-.15-2.96-.38-4.01-.22-1.06-.56-1.89-1-2.49-.44-.61-1.04-1.1-1.79-1.49-.74-.38-1.54-.58-2.35-.58-1.27,0-2.57.36-3.89,1.08-1.32.71-2.49,1.81-3.52,3.26l-.04.99.07,4.37-.07,3.58v3.41l-.03,3.04c0,1.5.15,2.39.45,2.66.45.43,1.56.75,3.34.92l1.05.38c.19.52.28.93.28,1.22,0,.16-.05.43-.14.82l-.99-.02h-1.36l-.71-.03c-1.62-.16-3.3-.26-5.02-.28l-3.66-.07c-.89,0-2.42.1-4.6.31l-.62-.1-.03-2.02c.69-.21,1.91-.37,3.69-.51.1-.02.26-.07.44-.14.24-.29.4-.54.44-.75.12-.45.16-1.37.16-2.76l-.02-6.93.06-1.84c0-3.55-.12-5.74-.37-6.59-.31-1.08-.98-1.98-1.99-2.68-1.01-.69-2.22-1.04-3.63-1.04-1.84,0-3.45.44-4.81,1.32-1.37.87-2.15,1.66-2.35,2.33-.02.28-.03.48-.03.62l.03.34v.35c0,.2-.06.52-.17.96l.11,9.8.04,5.11c0,.19.02.48.06.89l.18.51c.64.21,1.19.35,1.64.44.84.19,1.48.38,1.91.62.07.38.1.66.1.82,0,.3-.09.72-.28,1.27-.36.02-.63.04-.78.04-.26,0-1.39-.11-3.41-.31l-3.73-.04c-1.77,0-3.91.13-6.44.38l-.99-.03c-.05-.37-.09-.79-.14-1.27,0-.2.06-.5.17-.89h0ZM603.19,48.84c.68-.14,1.18-.2,1.5-.2.15,0,.4.01.71.02l.3.35c1.23,2.16,2.04,3.47,2.42,3.93.8.93,1.58,1.68,2.36,2.25.52.36,1.34.75,2.46,1.13.75.27,1.54.41,2.39.41,1.43,0,2.66-.47,3.68-1.39,1.03-.92,1.54-1.91,1.54-2.98,0-.73-.2-1.35-.58-1.86-.38-.51-1.17-1.01-2.32-1.51-.57-.26-2-.66-4.29-1.24-2.28-.56-3.67-.94-4.15-1.12-1.07-.41-2.02-.98-2.84-1.71-.84-.72-1.47-1.55-1.9-2.46-.59-1.29-.89-2.41-.89-3.34,0-1.72.24-3.15.75-4.25.5-1.1,1.21-2.07,2.12-2.91.66-.64,1.65-1.22,2.98-1.75,1.34-.51,2.76-.78,4.29-.78,2.15,0,4.07.15,5.7.44,1.64.3,3.03.75,4.17,1.33.13.52.33,1.74.57,3.62.26,1.89.38,3.01.38,3.34,0,.16-.04.33-.1.51-.59.19-1.08.27-1.47.27-.23,0-.56-.01-.99-.06-.21-.33-.48-.8-.82-1.43-1.1-2.03-2.21-3.46-3.37-4.29-1.15-.83-2.47-1.25-3.97-1.25s-2.89.45-3.96,1.36c-.78.66-1.16,1.56-1.16,2.7,0,.75.41,1.5,1.23,2.28.79.79,2.18,1.4,4.16,1.81,2.98.66,5.18,1.32,6.6,1.98,2.04.96,3.48,2.09,4.31,3.38.83,1.29,1.25,2.8,1.25,4.51,0,2.63-.99,4.83-2.98,6.61-1.99,1.76-4.9,2.65-8.73,2.65-.5,0-1.81-.12-3.93-.34-.96-.12-2.07-.35-3.38-.69-.31-.09-1.14-.42-2.49-.99-.24-.14-.42-.3-.52-.5-.11-.19-.26-1.14-.47-2.84-.36-2.77-.55-4.44-.57-4.99h0Z"/>
</svg>