<?xml version="1.0" standalone="no"?>
<!DOCTYPE svg PUBLIC "-//W3C//DTD SVG 20010904//EN"
 "http://www.w3.org/TR/2001/REC-SVG-20010904/DTD/svg10.dtd">
<svg version="1.0" xmlns="http://www.w3.org/2000/svg"
 width="341.000000pt" height="48.000000pt" viewBox="0 0 341.000000 48.000000"
 preserveAspectRatio="xMidYMid meet">

<g transform="translate(0.000000,48.000000) scale(0.100000,-0.100000)"
fill="#000000" stroke="none">
<path d="M4 467 c-2 -7 -3 -111 -2 -232 l3 -220 1700 0 1700 0 3 233 2 232
-1700 0 c-1368 0 -1702 -2 -1706 -13z m3386 -217 l0 -220 -1685 0 -1685 0 0
220 0 220 1685 0 1685 0 0 -220z"/>
<path d="M130 400 c-25 -4 -38 -8 -29 -8 11 -2 18 -16 23 -48 12 -90 8 -132
-16 -155 l-23 -21 85 5 c101 6 114 10 129 43 16 35 14 42 -15 69 -23 21 -24
26 -10 31 20 8 22 57 2 73 -18 15 -91 21 -146 11z m112 -35 c14 -32 -4 -55
-43 -55 -27 0 -29 3 -29 40 0 38 2 40 30 40 23 0 33 -6 42 -25z m2 -91 c34
-34 11 -84 -39 -84 l-35 0 0 50 c0 49 1 50 29 50 16 0 37 -7 45 -16z"/>
<path d="M1087 399 c-14 -8 -15 -14 -7 -24 7 -9 10 -49 8 -109 -3 -85 3 -118
14 -85 3 9 9 9 25 0 33 -17 59 -13 88 12 32 27 37 78 10 107 -20 22 -74 27
-93 8 -9 -9 -12 1 -12 45 0 59 -3 63 -33 46z m109 -127 c25 -50 -22 -114 -61
-82 -15 13 -21 90 -8 104 14 14 58 1 69 -22z"/>
<path d="M1294 399 c-3 -6 0 -17 8 -25 13 -13 16 -13 27 0 7 8 10 20 6 26 -8
13 -32 13 -41 -1z"/>
<path d="M2151 403 c-16 -3 -20 -7 -12 -12 6 -4 14 -24 18 -44 l5 -35 -38 5
c-55 7 -88 -20 -88 -72 0 -57 30 -76 106 -71 33 3 63 7 66 10 3 3 0 6 -6 6 -9
0 -12 33 -12 110 0 61 -3 109 -7 109 -5 -1 -19 -4 -32 -6z m2 -141 c11 -55 4
-72 -26 -72 -44 0 -69 56 -42 96 26 40 57 29 68 -24z"/>
<path d="M2326 385 c-9 -34 -7 -39 12 -22 10 10 33 17 50 17 l32 0 0 -91 c0
-82 -2 -91 -20 -96 -37 -10 -20 -19 40 -20 33 -1 60 2 60 7 0 6 -7 10 -15 10
-12 0 -15 17 -15 95 l0 95 29 0 c16 0 31 -6 35 -15 9 -25 26 -17 26 13 l0 27
-114 0 c-107 0 -115 -1 -120 -20z"/>
<path d="M1557 324 c-15 -13 -23 -24 -18 -24 7 0 11 -22 11 -53 0 -29 5 -58
12 -65 16 -16 43 -15 57 2 10 12 8 13 -8 9 -19 -5 -21 -1 -21 50 0 50 2 56 23
60 22 4 22 4 0 6 -13 0 -23 9 -25 20 -3 18 -5 18 -31 -5z"/>
<path d="M1292 315 c-19 -10 -20 -14 -8 -18 24 -9 22 -102 -1 -116 -14 -8 -7
-10 32 -10 39 0 46 2 33 10 -15 8 -18 24 -18 79 0 74 -1 76 -38 55z"/>
<path d="M1853 315 c-25 -11 -29 -20 -13 -30 18 -11 12 -93 -7 -104 -14 -8 -9
-10 27 -11 34 0 41 3 32 12 -7 7 -12 33 -12 58 0 39 4 49 23 57 12 5 28 8 35
6 17 -6 17 -119 0 -126 -7 -3 7 -5 32 -5 25 0 39 2 33 5 -8 3 -13 25 -13 62 0
31 -5 62 -12 69 -14 14 -57 16 -78 2 -10 -6 -17 -5 -20 3 -4 9 -11 9 -27 2z"/>
<path d="M2581 310 c-13 -11 -18 -20 -12 -20 14 0 15 -92 1 -106 -8 -8 4 -11
37 -12 35 0 43 2 30 9 -12 7 -17 23 -17 60 0 46 2 50 22 47 15 -2 24 3 26 15
2 12 -3 17 -17 17 -12 0 -21 -4 -21 -10 0 -5 -4 -10 -10 -10 -5 0 -7 7 -4 15
8 20 -6 18 -35 -5z"/>
<path d="M2913 315 c-25 -11 -29 -20 -13 -30 17 -11 12 -93 -7 -103 -12 -7 -5
-9 25 -8 27 0 38 4 32 10 -6 6 -10 31 -10 58 0 38 4 50 21 58 37 20 49 6 49
-59 0 -33 -5 -61 -10 -63 -6 -2 8 -4 30 -4 30 -1 38 2 31 9 -6 6 -11 32 -11
58 0 50 16 73 47 67 15 -3 18 -14 18 -69 l0 -65 34 -1 c24 -1 30 2 22 10 -6 6
-11 31 -11 55 0 61 -14 82 -53 82 -18 0 -38 -5 -45 -12 -8 -8 -15 -8 -27 2 -9
8 -30 11 -55 7 -21 -3 -40 -2 -42 2 -2 3 -13 2 -25 -4z"/>
<path d="M371 240 c33 -69 37 -83 27 -105 -9 -19 -16 -23 -35 -19 -17 5 -23 2
-23 -9 0 -9 4 -19 10 -22 22 -14 48 19 84 107 21 51 44 100 52 109 13 14 11
16 -15 15 -20 -1 -26 -4 -20 -12 9 -11 -5 -70 -21 -87 -10 -11 -44 78 -35 92
4 7 -6 11 -28 11 l-34 0 38 -80z"/>
<path d="M537 303 c-21 -24 -22 -56 -2 -73 14 -11 13 -14 -5 -27 -25 -17 -26
-39 -2 -48 16 -6 16 -7 0 -16 -64 -36 45 -80 116 -48 70 32 28 89 -65 89 -54
0 -47 23 8 31 50 6 73 24 73 55 0 17 4 22 15 18 9 -4 15 0 15 10 0 10 -9 16
-22 16 -13 0 -43 3 -68 6 -37 5 -49 2 -63 -13z m78 -38 c0 -36 -2 -40 -25 -40
-20 0 -26 6 -28 28 -5 42 5 59 30 55 20 -3 23 -9 23 -43z m32 -141 c8 -21 -14
-34 -59 -34 -39 0 -53 12 -44 35 8 22 95 20 103 -1z"/>
<path d="M730 300 c-24 -24 -25 -43 -3 -65 16 -16 15 -18 -8 -36 l-24 -19 24
-20 c16 -14 38 -20 72 -20 53 0 72 -16 44 -37 -37 -27 -114 -11 -102 21 4 10
1 16 -9 16 -24 0 -30 -31 -9 -46 23 -17 92 -18 125 -1 61 31 21 87 -62 87 -47
0 -63 12 -32 24 9 3 29 6 45 6 33 0 69 31 69 60 0 13 5 18 15 14 10 -4 15 0
15 11 0 13 -6 16 -25 13 -14 -3 -28 -1 -31 3 -10 18 -83 10 -104 -11z m86 -14
c7 -27 -10 -66 -29 -66 -20 0 -37 21 -37 45 0 46 55 63 66 21z"/>
<path d="M926 301 c-27 -30 -25 -89 3 -112 28 -23 70 -24 97 -3 18 15 18 15
-3 9 -33 -9 -58 2 -71 31 -7 14 -12 27 -12 29 0 3 25 5 55 5 59 0 63 4 39 38
-20 29 -83 31 -108 3z m82 -13 c3 -14 -3 -18 -27 -18 -29 0 -41 17 -24 34 13
13 48 1 51 -16z"/>
<path d="M1404 313 c-35 -24 -19 -67 31 -83 25 -8 35 -17 33 -28 -5 -26 -44
-26 -62 -1 -19 28 -32 19 -16 -10 21 -40 110 -21 110 23 0 27 -13 39 -55 53
-16 5 -30 16 -30 24 0 21 34 23 57 2 20 -18 20 -17 17 2 -3 15 -13 21 -39 23
-19 1 -40 -1 -46 -5z"/>
<path d="M1683 305 c-13 -9 -23 -22 -23 -30 0 -20 27 -7 33 16 5 19 47 28 47
10 0 -5 2 -16 5 -23 4 -9 -10 -22 -40 -36 -71 -34 -55 -91 18 -64 23 9 34 9
44 0 11 -9 18 -7 31 5 15 16 15 17 0 17 -14 0 -18 12 -20 58 l-3 57 -35 3
c-20 1 -45 -4 -57 -13z m67 -71 c0 -16 -23 -44 -35 -44 -18 0 -20 36 -2 43 17
8 37 8 37 1z"/>
<path d="M2727 309 c-41 -24 -40 -94 1 -125 24 -19 76 -17 101 4 55 45 24 132
-47 132 -20 0 -45 -5 -55 -11z m84 -26 c7 -18 8 -41 2 -63 -7 -30 -12 -35 -38
-35 -29 0 -30 2 -33 49 -4 63 2 76 33 76 19 0 28 -7 36 -27z"/>
<path d="M3223 313 c-7 -2 -13 -18 -13 -34 0 -26 6 -32 46 -49 39 -17 44 -23
34 -35 -18 -22 -46 -18 -64 7 -19 26 -27 21 -15 -9 16 -43 109 -24 109 21 0
27 -13 39 -55 53 -16 5 -30 16 -30 24 0 21 34 23 56 3 18 -16 19 -16 19 4 0
19 -6 22 -37 21 -21 0 -44 -3 -50 -6z"/>
</g>
</svg>
